<?xml version="1.0" encoding="UTF-8" standalone="no"?>
<svg
   height="128"
   width="128"
   version="1.1"
   id="svg7"
   sodipodi:docname="icon.svg"
   inkscape:version="1.3.2 (091e20ef0f, 2023-11-25)"
   xmlns:inkscape="http://www.inkscape.org/namespaces/inkscape"
   xmlns:sodipodi="http://sodipodi.sourceforge.net/DTD/sodipodi-0.dtd"
   xmlns="http://www.w3.org/2000/svg"
   xmlns:svg="http://www.w3.org/2000/svg">
  <defs
     id="defs7" />
  <sodipodi:namedview
     id="namedview7"
     pagecolor="#ffffff"
     bordercolor="#000000"
     borderopacity="0.25"
     inkscape:showpageshadow="2"
     inkscape:pageopacity="0.0"
     inkscape:pagecheckerboard="0"
     inkscape:deskcolor="#d1d1d1"
     inkscape:zoom="2.2539029"
     inkscape:cx="19.521693"
     inkscape:cy="1.3310245"
     inkscape:window-width="1920"
     inkscape:window-height="1020"
     inkscape:window-x="0"
     inkscape:window-y="0"
     inkscape:window-maximized="1"
     inkscape:current-layer="svg7" />
  <path
     id="rect1"
     style="stroke-width:4"
     d="M 14.451613,0 H 113.54839 C 121.55458,0 128,6.4454196 128,14.451613 V 113.54839 C 128,121.55458 121.55458,128 113.54839,128 H 14.451613 C 6.4454196,128 0,121.55458 0,113.54839 V 14.451613 C 0,6.4454196 6.4454196,0 14.451613,0 Z" />
  <path
     d="m 25.056909,47.589874 h 6.048305 q 2.109873,0 4.125975,0.46886 2.016102,0.468861 3.563342,1.500355 1.594127,1.031494 2.531849,2.719393 0.937721,1.687898 0.937721,4.172861 0,1.969215 -0.843949,3.938431 -0.797064,1.922329 -2.484962,3.328912 -1.687899,1.359696 -4.360406,1.641013 1.500355,0.46886 2.719393,1.687898 1.265924,1.219039 2.062988,2.438077 0.04688,0.09377 0.515746,0.843949 0.515747,0.750178 1.219038,1.875444 0.750177,1.078379 1.547241,2.203646 0.797063,1.125266 1.453469,1.969215 1.031494,1.265924 1.875443,2.062987 0.84395,0.750178 1.781671,1.125266 0.937722,0.328204 2.15676,0.375089 v 0.468861 h -4.594837 q -2.531848,0 -4.594835,-0.421975 -2.062988,-0.46886 -3.657115,-1.547241 -1.594127,-1.078379 -2.766279,-2.906936 -0.375089,-0.562634 -0.843949,-1.406583 -0.421974,-0.890835 -0.890835,-1.875443 -0.468861,-0.984608 -0.937722,-1.875443 -0.421975,-0.937722 -0.750178,-1.6879 -0.328202,-0.750177 -0.468861,-1.172152 -0.609518,-1.500354 -1.453468,-2.250531 -0.797063,-0.750177 -1.734785,-0.890836 V 63.90623 q 0.140658,0 0.562633,0 0.421975,0 0.890836,0 1.265924,0 2.438076,-0.515746 1.219038,-0.515748 2.15676,-1.6879 0.937722,-1.172152 1.31281,-3.235139 0.09377,-0.421975 0.140658,-0.984608 0.09377,-0.562633 0.04688,-1.265924 -0.140658,-3.375799 -1.687898,-4.923039 -1.547241,-1.594127 -3.844659,-1.641013 -0.656406,-0.04688 -1.453469,0 -0.750177,0 -1.406582,0 -0.60952,0 -0.84395,0 0,-0.04688 -0.140658,-0.515747 -0.09377,-0.515747 -0.23443,-1.031494 z m 0.609519,0 V 80.410131 H 18.633516 V 47.589874 Z m -6.892254,29.397573 v 3.422684 H 15.023287 V 79.94127 q 0.04688,0 0.281318,0 0.281316,0 0.328202,0 1.219038,0 2.062988,-0.843949 0.890835,-0.890836 0.937721,-2.109874 z m 0,-25.974889 h -0.140658 q -0.04688,-1.219039 -0.937721,-2.062988 -0.84395,-0.890836 -2.062988,-0.890836 -0.04688,0 -0.328202,0 -0.234431,0 -0.281318,0 v -0.46886 h 3.750887 z m 6.751596,25.974889 h 0.140658 q 0,1.219038 0.890836,2.109874 0.890836,0.843949 2.109874,0.843949 0.09377,0 0.328202,0 0.23443,0 0.23443,0 v 0.468861 h -3.704 z m 56.41232,-9.705419 v 7.736204 q -1.125266,1.406582 -3.375798,2.813165 -2.203646,1.406582 -5.298127,2.344304 -3.094482,0.890836 -6.892254,0.890836 -5.345014,0 -9.330331,-2.062988 -3.985316,-2.109874 -6.188963,-5.954533 -2.203645,-3.844658 -2.203645,-9.0959 0,-5.251241 2.156759,-9.049014 2.203647,-3.797772 6.235849,-5.86076 4.07909,-2.109874 9.611647,-2.109874 2.578735,0 5.016811,0.375089 2.438076,0.328203 4.501064,0.890835 2.062988,0.562634 3.422684,1.312811 l 0.09377,8.01752 h -0.421975 q -0.890835,-3.188254 -2.578734,-5.063697 -1.687899,-1.922329 -3.938431,-2.719393 -2.203646,-0.84395 -4.688609,-0.84395 -3.797772,0 -6.470278,1.875445 -2.625621,1.828556 -3.985318,5.25124 -1.31281,3.422685 -1.31281,8.205064 0,4.501065 1.219038,7.876862 1.265925,3.328912 3.657115,5.157469 2.39119,1.781672 5.813874,1.828558 1.734785,0 3.328912,-0.515747 1.641013,-0.562634 2.860051,-1.594127 1.219038,-1.031493 1.734785,-2.531849 l 0.04688,-7.17357 q 0,-2.109874 -2.39119,-2.109874 h -0.750175 v -0.468861 h 13.17499 v 0.468861 h -0.703292 q -2.438076,0 -2.344304,2.109874 z M 97.176105,47.589874 V 80.410131 H 90.143193 V 47.589874 Z m 12.377925,30.804155 1.12526,2.016102 H 97.035447 v -2.016102 z m 3.42268,-7.595545 -2.15676,9.611647 h -9.18966 l 1.68789,-2.016102 q 2.34431,0 4.12597,-0.890835 1.78167,-0.937722 3.0476,-2.625621 1.26593,-1.734784 2.01611,-4.079089 z m -22.692859,6.188963 v 3.422684 H 86.532965 V 79.94127 q 0,0 0.281316,0 0.328202,0 0.328202,0 1.219039,0 2.062988,-0.843949 0.890836,-0.890836 0.937722,-2.109874 z m 0,-25.974889 h -0.140658 q -0.04688,-1.219039 -0.937722,-2.062988 -0.843949,-0.890836 -2.062988,-0.890836 0,0 -0.328202,0 -0.281316,0 -0.281316,0 v -0.46886 h 3.750886 z m 6.751596,0 v -3.422684 h 3.750893 v 0.46886 q -0.0469,0 -0.32821,0 -0.28131,0 -0.28131,0 -1.219047,0 -2.109881,0.890836 -0.843947,0.843949 -0.890834,2.062988 z"
     id="text7"
     style="font-weight:bold;font-size:50.4532px;font-family:Cinzel;-inkscape-font-specification:'Cinzel Bold';text-align:center;letter-spacing:0px;word-spacing:0px;text-anchor:middle;fill:#ffffff;stroke-width:0.755905;stroke-linecap:round;stroke-linejoin:round"
     aria-label="RGL" />
</svg>
